<svg width="24" height="24" viewBox="0 0 24 24" fill="none" xmlns="http://www.w3.org/2000/svg">
<path fill-rule="evenodd" clip-rule="evenodd" d="M16.5299 8.97003C16.6704 9.11066 16.7492 9.30128 16.7492 9.50003C16.7492 9.69878 16.6704 9.88941 16.5299 10.03L12.5299 14.03C12.3893 14.1705 12.1987 14.2494 11.9999 14.2494C11.8012 14.2494 11.6105 14.1705 11.4699 14.03L7.46991 10.03C7.39622 9.96137 7.33712 9.87857 7.29613 9.78657C7.25514 9.69457 7.23309 9.59526 7.23132 9.49455C7.22954 9.39385 7.24807 9.29382 7.28579 9.20043C7.32351 9.10705 7.37965 9.02221 7.45087 8.95099C7.52209 8.87978 7.60692 8.82363 7.70031 8.78591C7.7937 8.74819 7.89373 8.72966 7.99443 8.73144C8.09513 8.73322 8.19445 8.75526 8.28645 8.79625C8.37845 8.83724 8.46125 8.89635 8.52991 8.97003L11.9999 12.44L15.4699 8.97003C15.6105 8.82958 15.8012 8.75069 15.9999 8.75069C16.1987 8.75069 16.3893 8.82958 16.5299 8.97003Z" fill="black"/>
</svg>
